<?xml version="1.0" encoding="UTF-8" standalone="no"?>
<svg
   width="76"
   height="76"
   viewBox="0 0 76 76"
   version="1.1"
   xmlns="http://www.w3.org/2000/svg"
   xmlns:svg="http://www.w3.org/2000/svg">
     <style>
    path.white {
      stroke: #1E90FF;
      stroke-width: 4;
      fill: white;
    }
    path.black {
      stroke: #1E90FF;
      stroke-width: 4;
      fill: #1E90FF;
    }
  </style>
  <!-- White keys -->
  <path class="white" d="M 2.6787298,2.6787298 H 20.384191 V 69.559174 q 0,4.180027 -4.426366,4.180027 H 7.1050955 q -4.4263657,0 -4.4263657,-4.180027 z"/>
  <path class="white" d="M 20.384191,2.6787298 H 38.089653 V 69.559174 q 0,4.180027 -4.426365,4.180027 h -8.85273 q -4.426367,0 -4.426367,-4.180027 z"/>
  <path class="white" d="M 38.089653,2.6787298 H 55.795116 V 69.559174 q 0,4.180027 -4.426366,4.180027 h -8.852731 q -4.426366,0 -4.426366,-4.180027 z"/>
  <path class="white" d="M 55.795116,2.6787298 H 73.500578 V 69.559174 q 0,4.180027 -4.426366,4.180027 h -8.85273 q -4.426366,0 -4.426366,-4.180027 z"/>
  <!-- Black keys -->
  <path class="black" d="m 15.957825,2.6787298 h 8.852733 V 44.479007 q 0,4.180027 -4.426367,4.180027 -4.426366,0 -4.426366,-4.180027 z"/>
  <path class="black" d="m 33.663288,2.6787298 h 8.852731 V 44.479007 q 0,4.180027 -4.426366,4.180027 -4.426365,0 -4.426365,-4.180027 z"/>
  <path class="black" d="m 51.36875,2.6787298 h 8.852732 V 44.479007 q 0,4.180027 -4.426366,4.180027 -4.426366,0 -4.426366,-4.180027 z"/>
</svg>
